<svg width="1024" height="1024" viewBox="0 0 1024 1024" fill="none" xmlns="http://www.w3.org/2000/svg">
  <defs>
    <linearGradient id="bg" x1="220" y1="90" x2="820" y2="940" gradientUnits="userSpaceOnUse">
      <stop stop-color="#071425"/>
      <stop offset="1" stop-color="#0C2B4D"/>
    </linearGradient>
    <filter id="shadow" x="0" y="0" width="1024" height="1024" filterUnits="userSpaceOnUse" color-interpolation-filters="sRGB">
      <feDropShadow dx="0" dy="28" stdDeviation="28" flood-color="#000000" flood-opacity="0.35"/>
    </filter>
  </defs>
  <rect x="78" y="78" width="868" height="868" rx="230" fill="url(#bg)" filter="url(#shadow)"/>
  <rect x="148" y="148" width="728" height="728" rx="184" stroke="#3FBFFF" stroke-opacity="0.35" stroke-width="16"/>
  <rect x="241" y="307" width="542" height="410" rx="92" fill="#0B233D" fill-opacity="0.78" stroke="#56A7E6" stroke-opacity="0.45" stroke-width="12"/>
  <g opacity="0.68">
    <rect x="338" y="449" width="26" height="126" rx="13" fill="#22D3EE"/>
    <rect x="392" y="418" width="26" height="188" rx="13" fill="#5190CF"/>
    <rect x="446" y="435" width="26" height="154" rx="13" fill="#22D3EE"/>
    <rect x="500" y="391" width="26" height="242" rx="13" fill="#5190CF"/>
    <rect x="554" y="431" width="26" height="166" rx="13" fill="#22D3EE"/>
    <rect x="608" y="413" width="26" height="202" rx="13" fill="#5190CF"/>
    <rect x="662" y="456" width="26" height="118" rx="13" fill="#22D3EE"/>
  </g>
  <g>
    <rect x="433" y="358" width="158" height="286" rx="79" fill="#E1F8FF"/>
    <rect x="469" y="430" width="86" height="13" rx="6.5" fill="#3E84BE" fill-opacity="0.7"/>
    <rect x="469" y="491" width="86" height="13" rx="6.5" fill="#3E84BE" fill-opacity="0.7"/>
    <rect x="469" y="552" width="86" height="13" rx="6.5" fill="#3E84BE" fill-opacity="0.7"/>
    <path d="M374 428C388 574 443 671 512 671C581 671 636 574 650 428" stroke="#22D3EE" stroke-width="28" stroke-linecap="round"/>
    <rect x="490" y="650" width="44" height="102" rx="22" fill="#E1F8FF"/>
    <rect x="420" y="737" width="184" height="42" rx="21" fill="#E1F8FF"/>
  </g>
  <path d="M311 392C257 438 257 586 311 632" stroke="#22D3EE" stroke-width="22" stroke-linecap="round"/>
  <path d="M251 347C160 438 160 586 251 677" stroke="#22D3EE" stroke-opacity="0.72" stroke-width="18" stroke-linecap="round"/>
  <path d="M713 392C767 438 767 586 713 632" stroke="#22D3EE" stroke-width="22" stroke-linecap="round"/>
  <path d="M773 347C864 438 864 586 773 677" stroke="#22D3EE" stroke-opacity="0.72" stroke-width="18" stroke-linecap="round"/>
  <circle cx="715" cy="298" r="26" fill="#4CE6FF" fill-opacity="0.75"/>
</svg>